<svg width="1600" height="960" viewBox="0 0 1600 960" fill="none" xmlns="http://www.w3.org/2000/svg" role="img" aria-labelledby="title desc">
  <title id="title">BMAD-Speckit-SDD-Flow architecture overview</title>
  <desc id="desc">A structured, modern horizontal diagram showcasing the five layers of product intent to audited delivery with nested technical workflows.</desc>
  <defs>
    <linearGradient id="bg" x1="0" y1="0" x2="1600" y2="960" gradientUnits="userSpaceOnUse">
      <stop stop-color="#050505"/>
      <stop offset="1" stop-color="#0A0A0A"/>
    </linearGradient>
    <!-- Pipeline Line Glow -->
    <linearGradient id="pipelineStroke" x1="160" y1="480" x2="1440" y2="480" gradientUnits="userSpaceOnUse">
      <stop stop-color="#3b82f6"/>
      <stop offset="0.25" stop-color="#8b5cf6"/>
      <stop offset="0.75" stop-color="#10b981"/>
      <stop offset="1" stop-color="#f59e0b"/>
    </linearGradient>
    <filter id="glowEffect" x="-50%" y="-50%" width="200%" height="200%">
      <feGaussianBlur stdDeviation="8" result="blur"/>
      <feMerge>
        <feMergeNode in="blur"/>
        <feMergeNode in="SourceGraphic"/>
      </feMerge>
    </filter>
    <filter id="heavyGlow" x="-50%" y="-50%" width="200%" height="200%">
      <feGaussianBlur stdDeviation="16" result="blur"/>
      <feMerge>
        <feMergeNode in="blur"/>
        <feMergeNode in="SourceGraphic"/>
      </feMerge>
    </filter>
    <style>
      .eyebrow { font: 700 14px "Inter", -apple-system, sans-serif; letter-spacing: 0.25em; fill: #6B7280; }
      .title { font: 800 48px "Inter", -apple-system, sans-serif; fill: #F3F4F6; letter-spacing: -0.02em; }
      .subtitle { font: 400 20px "Inter", -apple-system, sans-serif; fill: #9CA3AF; }
      .layerLabel { font: 700 13px "Inter", -apple-system, sans-serif; letter-spacing: 0.2em; fill: #9CA3AF; }
      .layerTitle { font: 700 20px "Inter", -apple-system, sans-serif; fill: #F9FAFB; }
      .layerText { font: 400 15px "Inter", -apple-system, sans-serif; fill: #6B7280; line-height: 1.5; }
      .nestedTag { font: 600 11px "Inter", -apple-system, sans-serif; letter-spacing: 0.1em; fill: #FFFFFF; }
      .arrowLine { stroke: #374151; stroke-width: 2; stroke-dasharray: 4 6; }
    </style>
  </defs>

  <!-- Background -->
  <rect width="1600" height="960" rx="32" fill="url(#bg)"/>

  <g stroke="#1F2937" stroke-width="1" stroke-dasharray="2 4" opacity="0.3">
    <path d="M0 80 H1600 M0 160 H1600 M0 240 H1600 M0 320 H1600 M0 400 H1600 M0 480 H1600 M0 560 H1600 M0 640 H1600 M0 720 H1600 M0 800 H1600 M0 880 H1600"/>
    <path d="M160 0 V960 M320 0 V960 M480 0 V960 M640 0 V960 M800 0 V960 M960 0 V960 M1120 0 V960 M1280 0 V960 M1440 0 V960"/>
  </g>

  <!-- Header -->
  <g transform="translate(160, 140)">
    <text x="0" y="0" class="eyebrow">SYSTEM ARCHITECTURE</text>
    <text x="0" y="56" class="title">5 Layers of Audited Delivery</text>
    <text x="0" y="96" class="subtitle">Review and audit constraints are embedded directly into the sequence.</text>
  </g>

  <!-- Pipeline Backdrop -->
  <path d="M220 540 L1380 540" stroke="#1F2937" stroke-width="8" stroke-linecap="round"/>
  <path d="M220 540 L1380 540" stroke="url(#pipelineStroke)" stroke-width="4" stroke-linecap="round" filter="url(#glowEffect)"/>

  <!-- ================= L1 Block ================= -->
  <g transform="translate(160, 440)">
    <rect x="-20" y="-80" width="220" height="240" rx="20" fill="#0A0A0A" stroke="#1F2937" stroke-width="2"/>
    <rect x="-20" y="-80" width="220" height="6" fill="#3b82f6"/>
    <!-- Node -->
    <circle cx="90" cy="100" r="14" fill="#0A0A0A" stroke="#3b82f6" stroke-width="4" filter="url(#glowEffect)"/>
    <circle cx="90" cy="100" r="4" fill="#3b82f6"/>
    <!-- Content -->
    <text x="0" y="-40" class="layerLabel">LAYER 1</text>
    <text x="0" y="-12" class="layerTitle">Product Def</text>
    <foreignObject x="0" y="8" width="180" height="80">
      <div xmlns="http://www.w3.org/1999/xhtml" style="color: #9CA3AF; font: 400 13px 'Inter', sans-serif; line-height: 1.5;">
        Brief → PRD → Architecture.<br/><br/>
        Complexity routes escalation. Clears review before planning.
      </div>
    </foreignObject>
  </g>

  <!-- ================= L2 Block ================= -->
  <g transform="translate(420, 440)">
    <rect x="-20" y="-80" width="220" height="240" rx="20" fill="#0A0A0A" stroke="#1F2937" stroke-width="2"/>
    <rect x="-20" y="-80" width="220" height="6" fill="#8b5cf6"/>
    <!-- Node -->
    <circle cx="90" cy="100" r="14" fill="#0A0A0A" stroke="#8b5cf6" stroke-width="4" filter="url(#glowEffect)"/>
    <circle cx="90" cy="100" r="4" fill="#8b5cf6"/>
    <!-- Content -->
    <text x="0" y="-40" class="layerLabel">LAYER 2</text>
    <text x="0" y="-12" class="layerTitle">Epic Planning</text>
    <foreignObject x="0" y="8" width="180" height="80">
      <div xmlns="http://www.w3.org/1999/xhtml" style="color: #9CA3AF; font: 400 13px 'Inter', sans-serif; line-height: 1.5;">
        Epics → Stories → Map.<br/><br/>
        Planning maps dependencies and selects execution scope.
      </div>
    </foreignObject>
  </g>

  <!-- ================= L3 Block ================= -->
  <g transform="translate(680, 440)">
    <rect x="-20" y="-80" width="220" height="240" rx="20" fill="#0A0A0A" stroke="#1F2937" stroke-width="2"/>
    <rect x="-20" y="-80" width="220" height="6" fill="#10b981"/>
    <!-- Node -->
    <circle cx="90" cy="100" r="14" fill="#0A0A0A" stroke="#10b981" stroke-width="4" filter="url(#glowEffect)"/>
    <circle cx="90" cy="100" r="4" fill="#10b981"/>
    <!-- Content -->
    <text x="0" y="-40" class="layerLabel">LAYER 3</text>
    <text x="0" y="-12" class="layerTitle">Story Dev</text>
    <foreignObject x="0" y="8" width="180" height="80">
      <div xmlns="http://www.w3.org/1999/xhtml" style="color: #9CA3AF; font: 400 13px 'Inter', sans-serif; line-height: 1.5;">
        Create → Refine → Story Doc.<br/><br/>
        Story work can recurse. First hard checkpoint lives here.
      </div>
    </foreignObject>
  </g>

  <!-- ================= L4 Block (Expanded) ================= -->
  <g transform="translate(940, 440)">
    <rect x="-20" y="-140" width="340" height="300" rx="20" fill="#111827" stroke="#374151" stroke-width="2"/>
    <rect x="-20" y="-140" width="340" height="6" fill="#f43f5e"/>
    <!-- Node on Pipeline -->
    <circle cx="150" cy="100" r="16" fill="#111827" stroke="#f43f5e" stroke-width="4" filter="url(#glowEffect)"/>
    <circle cx="150" cy="100" r="6" fill="#f43f5e"/>

    <!-- Content -->
    <text x="0" y="-100" class="layerLabel" fill="#f43f5e">LAYER 4</text>
    <text x="0" y="-72" class="layerTitle">Technical Implementation</text>
    <foreignObject x="0" y="-56" width="300" height="40">
      <div xmlns="http://www.w3.org/1999/xhtml" style="color: #9CA3AF; font: 400 13px 'Inter', sans-serif; line-height: 1.5;">
        Nested Speckit-Workflow pipeline.
      </div>
    </foreignObject>

    <!-- Sub-pipeline -->
    <path d="M0 -8 L300 -8" stroke="#374151" stroke-width="2" stroke-linecap="round"/>

    <g transform="translate(0, -8)">
      <circle cx="15" cy="0" r="8" fill="#1F2937" stroke="#3b82f6" stroke-width="2"/>
      <rect x="-5" y="16" width="40" height="18" rx="6" fill="#3b82f6" opacity="0.15"/>
      <text x="15" y="29" text-anchor="middle" class="nestedTag" fill="#3b82f6">specify</text>

      <circle cx="82" cy="0" r="8" fill="#1F2937" stroke="#8b5cf6" stroke-width="2"/>
      <rect x="66" y="16" width="32" height="18" rx="6" fill="#8b5cf6" opacity="0.15"/>
      <text x="82" y="29" text-anchor="middle" class="nestedTag" fill="#8b5cf6">plan</text>

      <circle cx="150" cy="0" r="8" fill="#1F2937" stroke="#f43f5e" stroke-width="2"/>
      <rect x="132" y="16" width="36" height="18" rx="6" fill="#f43f5e" opacity="0.15"/>
      <text x="150" y="29" text-anchor="middle" class="nestedTag" fill="#f43f5e">GAPS</text>

      <circle cx="218" cy="0" r="8" fill="#1F2937" stroke="#10b981" stroke-width="2"/>
      <rect x="200" y="16" width="36" height="18" rx="6" fill="#10b981" opacity="0.15"/>
      <text x="218" y="29" text-anchor="middle" class="nestedTag" fill="#10b981">tasks</text>

      <circle cx="285" cy="0" r="8" fill="#1F2937" stroke="#f59e0b" stroke-width="2"/>
      <rect x="268" y="16" width="34" height="18" rx="6" fill="#f59e0b" opacity="0.15"/>
      <text x="285" y="29" text-anchor="middle" class="nestedTag" fill="#f59e0b">TDD</text>
    </g>
  </g>

  <!-- ================= L5 Block ================= -->
  <g transform="translate(1330, 440)">
    <rect x="-20" y="-80" width="160" height="240" rx="20" fill="#0A0A0A" stroke="#1F2937" stroke-width="2"/>
    <rect x="-20" y="-80" width="160" height="6" fill="#f59e0b"/>
    <!-- Node -->
    <circle cx="60" cy="100" r="14" fill="#0A0A0A" stroke="#f59e0b" stroke-width="4" filter="url(#glowEffect)"/>
    <circle cx="60" cy="100" r="4" fill="#f59e0b"/>
    <!-- Content -->
    <text x="0" y="-40" class="layerLabel">LAYER 5</text>
    <text x="0" y="-12" class="layerTitle">Finish</text>
    <foreignObject x="0" y="8" width="120" height="80">
      <div xmlns="http://www.w3.org/1999/xhtml" style="color: #9CA3AF; font: 400 13px 'Inter', sans-serif; line-height: 1.5;">
        Push → PR → Human Review. Closure happens here.
      </div>
    </foreignObject>
  </g>

</svg>
